<svg width="512" height="512" viewBox="0 0 512 512" fill="none" xmlns="http://www.w3.org/2000/svg">
<path d="M95.9688 152.011L151.957 96.0225L319.929 263.994L263.941 319.983L95.9688 152.011Z" fill="#F4B2B0"/>
<path d="M476 448C465.24 448 455.128 443.816 447.512 436.2L411.312 400L421.656 389.656C424.784 386.528 424.784 381.472 421.656 378.344L319.312 276L325.656 269.656C328.784 266.528 328.784 261.472 325.656 258.344L295.704 228.392C306.336 207.28 312 183.792 312 160C312 76.184 243.816 8 160 8C76.184 8 8 76.184 8 160C8 243.816 76.184 312 160 312C183.792 312 207.28 306.336 228.392 295.704L258.344 325.656C259.904 327.216 261.952 328 264 328C266.048 328 268.096 327.216 269.656 325.656L276 319.312L378.344 421.656C379.904 423.216 381.952 424 384 424C386.048 424 388.096 423.216 389.656 421.656L400 411.312L436.2 447.512C446.832 458.152 460.968 464 476 464C482.616 464 488 469.384 488 476C488 482.616 482.616 488 476 488H296C278.352 488 264 473.648 264 456C264 429.528 242.472 408 216 408H96V424H216C233.648 424 248 438.352 248 456C248 482.472 269.528 504 296 504H476C491.44 504 504 491.44 504 476C504 460.56 491.44 448 476 448ZM160 296C85.008 296 24 234.992 24 160C24 85.008 85.008 24 160 24C234.992 24 296 85.008 296 160C296 179.512 291.744 198.792 283.72 216.408L251.128 183.816C259.464 173.752 264 161.224 264 148C264 132.968 258.152 118.832 247.512 108.2L205.656 66.344C202.528 63.216 197.472 63.216 194.344 66.344L188.56 72.128C177.128 66.896 164.648 64 152 64C103.48 64 64 103.48 64 152C64 164.656 66.896 177.136 72.12 188.568L66.344 194.344C63.216 197.472 63.216 202.528 66.344 205.656L108.2 247.512C118.832 258.152 132.968 264 148 264C161.224 264 173.752 259.464 183.816 251.128L216.408 283.72C198.792 291.744 179.512 296 160 296ZM80 152C80 112.296 112.296 80 152 80C160.328 80 168.568 81.536 176.352 84.336L164 96.688L157.656 90.344C154.528 87.216 149.472 87.216 146.344 90.344L90.344 146.344C87.216 149.472 87.216 154.528 90.344 157.656L96.688 164L84.336 176.352C81.544 168.576 80 160.336 80 152ZM108 175.312L172.32 239.632C165.336 244.968 156.936 248 148 248C137.24 248 127.128 243.816 119.512 236.2L83.312 200L108 175.312ZM107.312 152L152 107.312L228.688 184L184 228.688L107.312 152ZM175.312 108L200 83.312L236.2 119.512C243.816 127.128 248 137.24 248 148C248 156.936 244.968 165.336 239.632 172.32L175.312 108ZM195.312 240L240 195.312L308.688 264L264 308.688L195.312 240ZM384 404.688L287.312 308L308 287.312L404.688 384L384 404.688Z" fill="#E9042A"/>
<path d="M496 48C478.352 48 464 33.648 464 16C464 11.576 460.424 8 456 8C451.576 8 448 11.576 448 16C448 33.648 433.648 48 416 48C411.576 48 408 51.576 408 56C408 60.424 411.576 64 416 64C433.648 64 448 78.352 448 96C448 100.424 451.576 104 456 104C460.424 104 464 100.424 464 96C464 78.352 478.352 64 496 64C500.424 64 504 60.424 504 56C504 51.576 500.424 48 496 48ZM456 69.496C452.448 64.152 447.848 59.552 442.504 56C447.848 52.448 452.448 47.848 456 42.504C459.552 47.848 464.152 52.448 469.496 56C464.152 59.552 459.552 64.152 456 69.496Z" fill="#E9042A"/>
<path d="M384 256C384 260.424 387.576 264 392 264C396.424 264 400 260.424 400 256C400 238.352 414.352 224 432 224C436.424 224 440 220.424 440 216C440 211.576 436.424 208 432 208C414.352 208 400 193.648 400 176C400 171.576 396.424 168 392 168C387.576 168 384 171.576 384 176C384 193.648 369.648 208 352 208C347.576 208 344 211.576 344 216C344 220.424 347.576 224 352 224C369.648 224 384 238.352 384 256ZM392 202.504C395.552 207.848 400.152 212.44 405.496 216C400.152 219.552 395.56 224.152 392 229.496C388.448 224.152 383.848 219.56 378.504 216C383.848 212.448 388.448 207.848 392 202.504Z" fill="#E9042A"/>
<path d="M48 400C48 404.424 51.576 408 56 408C60.424 408 64 404.424 64 400C64 382.352 78.352 368 96 368C100.424 368 104 364.424 104 360C104 355.576 100.424 352 96 352C78.352 352 64 337.648 64 320C64 315.576 60.424 312 56 312C51.576 312 48 315.576 48 320C48 337.648 33.648 352 16 352C11.576 352 8 355.576 8 360C8 364.424 11.576 368 16 368C33.648 368 48 382.352 48 400ZM56 346.504C59.552 351.848 64.152 356.448 69.496 360C64.152 363.552 59.552 368.152 56 373.496C52.448 368.152 47.848 363.552 42.504 360C47.848 356.448 52.448 351.848 56 346.504Z" fill="#E9042A"/>
</svg>
