<svg width="512" height="512" viewBox="0 0 512 512" fill="none" xmlns="http://www.w3.org/2000/svg">
<path d="M88 496V464L72 448V360C72 351.16 79.16 344 88 344C96.84 344 104 351.16 104 360V328C104 319.16 111.16 312 120 312C128.84 312 136 319.16 136 328V312C136 303.16 143.16 296 152 296C160.84 296 168 303.16 168 312V328C168 319.16 175.16 312 184 312C192.84 312 200 319.16 200 328V408C200 399.16 207.16 392 216 392C224.84 392 232 399.16 232 408V440L184 472V496" fill="#F4B2B0"/>
<path d="M467.144 196.992L344.048 152.232C332.768 148.128 324 139.28 320 127.952L290.848 45.36C282.96 23.016 261.744 8 238.04 8H96C65.128 8 40 33.12 40 64V225.896C21.52 231.432 8 248.584 8 268.84C8 277.712 10.6 286.32 15.528 293.712L21.368 302.48C33.56 320.76 40 342.032 40 364C40 385.968 33.56 407.24 21.376 425.512L15.536 434.28C10.6 441.68 8 450.28 8 459.16C8 483.88 28.12 504 52.84 504C61.712 504 70.32 501.4 77.712 496.472L80 494.944V504H96V464C96 461.872 95.16 459.84 93.656 458.344L80 444.688V360C80 355.584 83.584 352 88 352C92.416 352 96 355.584 96 360V384H112V360V328C112 323.584 115.584 320 120 320C124.416 320 128 323.584 128 328V384H144V328V312C144 307.584 147.584 304 152 304C156.416 304 160 307.584 160 312V328V384H176V328C176 323.584 179.584 320 184 320C188.416 320 192 323.584 192 328V408V432H208V408C208 403.584 211.584 400 216 400C220.416 400 224 403.584 224 408V435.72L179.56 465.344C177.336 466.832 176 469.328 176 472V504H192V478.712C202.176 482.184 211.872 486.864 220.84 492.84L226.28 496.464C233.68 501.392 242.28 503.992 251.152 503.992C275.88 504 296 483.88 296 459.16C296 450.288 293.4 441.68 288.472 434.288L282.632 425.52C282.304 425.024 282.024 424.504 281.696 424.008H448C478.872 424.008 504 398.88 504 368.008V249.624C504 226.16 489.184 205.008 467.144 196.992ZM251.16 488C245.448 488 239.92 486.32 235.16 483.16L229.72 479.536C222.232 474.544 214.272 470.4 206.016 466.944L236.44 446.656C238.664 445.168 240 442.672 240 440V408C240 394.768 229.232 384 216 384C213.184 384 210.512 384.576 208 385.472V328C208 314.768 197.232 304 184 304C180.84 304 177.84 304.648 175.072 305.76C172.312 295.56 163.064 288 152 288C140.936 288 131.696 295.56 128.928 305.76C126.16 304.648 123.16 304 120 304C106.768 304 96 314.768 96 328V337.472C93.488 336.576 90.816 336 88 336C74.768 336 64 346.768 64 360V448C64 450.128 64.84 452.16 66.344 453.656L80 467.312V476.048C78.088 477.192 76.144 478.288 74.28 479.528L68.84 483.152C64.088 486.32 58.552 488 52.84 488C36.936 488 24 475.064 24 459.16C24 453.448 25.68 447.92 28.84 443.16L34.68 434.392C48.632 413.488 56 389.144 56 364C56 338.856 48.632 314.512 34.688 293.608L28.848 284.84C25.68 280.088 24 274.552 24 268.84C24 252.936 36.936 240 52.84 240C58.552 240 64.08 241.672 68.84 244.84L74.28 248.464C97.376 263.864 124.248 272 152 272C179.752 272 206.624 263.864 229.72 248.472L235.16 244.848C239.92 241.68 245.448 240.008 251.16 240.008C267.064 240 280 252.936 280 268.84C280 274.552 278.32 280.08 275.16 284.84L269.32 293.608C255.368 314.512 248 338.856 248 364C248 389.144 255.368 413.488 269.312 434.392L275.152 443.16C278.32 447.92 279.992 453.448 279.992 459.16C280 475.064 267.064 488 251.16 488ZM120 144V56H152V104H168V56H200V176H216V56H231.024C237.792 56 243.856 60.288 246.104 66.672L248 72.056V224.232C240.248 224.776 232.784 227.192 226.28 231.528L220.84 235.152C219.256 236.208 217.616 237.152 216 238.128V208H200V246.272C189.776 250.568 179.032 253.488 168 254.912V136H152V256C141.096 256 130.368 254.504 120 251.736V176H104V246.272C98.496 243.96 93.16 241.248 88 238.136V72C88 63.176 95.176 56 104 56V144H120ZM312 224V197.768L344 208.432V248H360V213.768L392 224.432V304H408V229.768L445.056 242.12C451.6 244.304 456 250.4 456 257.296V360C456 368.824 448.824 376 440 376H408V336H392V376H360V280H344V376H312V312H296V376H264.72C264.288 372.032 264 368.032 264 364C264 342.032 270.44 320.76 282.624 302.488L288.464 293.72C293.392 286.32 295.992 277.72 295.992 268.848C295.992 248.584 282.472 231.44 263.992 225.904V117.384L284.536 175.592C286.696 181.712 290.824 186.864 295.992 190.648V224H312ZM488 368C488 390.056 470.056 408 448 408H273.168C270.92 402.808 269.08 397.464 267.656 392H440C457.648 392 472 377.648 472 360V257.296C472 243.496 463.2 231.296 450.12 226.944L309.664 180.12C305.016 178.576 301.264 174.888 299.64 170.264L261.192 61.352C256.688 48.584 244.56 40 231.024 40H104C86.352 40 72 54.352 72 72V228.296C66.984 225.92 61.56 224.624 56 224.232V64C56 41.944 73.944 24 96 24H238.04C254.968 24 270.128 34.72 275.76 50.688L304.912 133.28C310.512 149.136 322.784 161.528 338.584 167.272L461.68 212.032C477.424 217.76 488 232.864 488 249.624V368Z" fill="#E9042A"/>
</svg>
