<svg width="512" height="512" viewBox="0 0 512 512" fill="none" xmlns="http://www.w3.org/2000/svg">
<path d="M136 448C149.255 448 160 437.255 160 424C160 410.745 149.255 400 136 400C122.745 400 112 410.745 112 424C112 437.255 122.745 448 136 448Z" fill="#F4B2B0"/>
<path d="M376 448C389.255 448 400 437.255 400 424C400 410.745 389.255 400 376 400C362.745 400 352 410.745 352 424C352 437.255 362.745 448 376 448Z" fill="#F4B2B0"/>
<path d="M8 488V504H504V488H376H136H8Z" fill="#E9042A"/>
<path d="M136 392C118.352 392 104 406.352 104 424C104 441.648 118.352 456 136 456C153.648 456 168 441.648 168 424C168 406.352 153.648 392 136 392ZM136 440C127.176 440 120 432.824 120 424C120 415.176 127.176 408 136 408C144.824 408 152 415.176 152 424C152 432.824 144.824 440 136 440Z" fill="#E9042A"/>
<path d="M376 392C358.352 392 344 406.352 344 424C344 441.648 358.352 456 376 456C393.648 456 408 441.648 408 424C408 406.352 393.648 392 376 392ZM376 440C367.176 440 360 432.824 360 424C360 415.176 367.176 408 376 408C384.824 408 392 415.176 392 424C392 432.824 384.824 440 376 440Z" fill="#E9042A"/>
<path d="M256 328H288V344H256V328Z" fill="#E9042A"/>
<path d="M368 328H400V344H368V328Z" fill="#E9042A"/>
<path d="M504 152C504 72.6 439.4 8 360 8C280.6 8 216 72.6 216 152C216 163.48 217.496 174.584 220.04 185.296C207.096 188.024 195.464 195.176 187.24 205.856L123.456 288.8L45.944 305.408C23.952 310.12 8 329.848 8 352.336V408C8 421.232 18.768 432 32 432H72.552C76.512 463.52 103.424 488 136 488C168.576 488 195.488 463.52 199.448 432H312.56C316.52 463.52 343.432 488 376.008 488C408.584 488 435.496 463.52 439.456 432H480C493.232 432 504 421.232 504 408V328C504 324.968 502.288 322.2 499.576 320.84L437.216 289.664L428.664 278.544C473.504 254.112 504 206.552 504 152ZM24.032 352H40V368H24V352.336C24 352.224 24.032 352.112 24.032 352ZM136 472C109.528 472 88 450.472 88 424C88 397.528 109.528 376 136 376C162.472 376 184 397.528 184 424C184 450.472 162.472 472 136 472ZM376 472C349.528 472 328 450.472 328 424C328 397.528 349.528 376 376 376C402.472 376 424 397.528 424 424C424 450.472 402.472 472 376 472ZM488 384H472V324.944L488 332.944V384ZM425.656 300.872C426.4 301.832 427.344 302.616 428.424 303.152L456 316.944V392C456 396.424 459.576 400 464 400H488V408C488 412.416 484.416 416 480 416H439.448C435.488 384.48 408.576 360 376 360C343.424 360 316.512 384.48 312.552 416H199.448C195.488 384.48 168.576 360 136 360C103.424 360 76.512 384.48 72.552 416H32C27.584 416 24 412.416 24 408V384H48C52.424 384 56 380.424 56 376V344C56 339.576 52.424 336 48 336H28.6C33.056 328.56 40.416 322.952 49.296 321.048L129.68 303.824C131.528 303.424 133.184 302.384 134.344 300.88L199.928 215.616C206.064 207.632 214.88 202.392 224.64 200.664C226.6 206.088 228.848 211.36 231.416 216.464C222.952 217.832 215.28 222.52 210.28 229.656L161.448 299.424C159.736 301.872 159.528 305.056 160.912 307.704C162.28 310.344 165.016 312 168 312H392C394.984 312 397.72 310.344 399.096 307.696C400.48 305.048 400.264 301.864 398.56 299.416L393.336 291.952C400.368 290.28 407.216 288.136 413.816 285.472L425.656 300.872ZM375.984 295.056L376.64 296H360H288V276.512C309.208 288.832 333.76 296 360 296C365.408 296 370.728 295.64 375.984 295.056ZM272 296H183.368L223.392 238.824C226.384 234.552 231.28 232 236.496 232H240.352C249 244.896 259.752 256.224 272 265.728V296ZM360 280C289.424 280 232 222.576 232 152C232 81.424 289.424 24 360 24C430.576 24 488 81.424 488 152C488 222.576 430.576 280 360 280Z" fill="#E9042A"/>
<path d="M408 40H312C307.576 40 304 43.576 304 48V80C304 80.328 304.024 80.664 304.064 80.992L320 208.496V256C320 260.424 323.576 264 328 264H392C396.424 264 400 260.424 400 256V208.496L415.936 80.992C415.976 80.664 416 80.328 416 80V48C416 43.576 412.424 40 408 40ZM400 56V72H320V56H400ZM384.936 200H335.056L321.056 88H398.928L384.936 200ZM384 248H336V216H384V248Z" fill="#E9042A"/>
<path d="M166.608 228.496C167.984 226.488 168.36 223.968 167.648 221.648L141.144 135.52L156.416 143.16L163.576 128.848L131.576 112.848C128.112 111.112 123.92 112.112 121.6 115.208L97.6004 147.208L110.4 156.8L124.976 137.368L149.416 216.792L106.392 220.104L99.6245 190.76L116.432 199.16L123.592 184.848L91.5925 168.848C88.1205 167.12 83.9284 168.112 81.6164 171.208L57.6165 203.208L70.4005 212.8L84.0724 194.568L90.2485 221.344L55.3765 224.024L56.6085 239.976L93.8804 237.112L101.256 269.072L17.9365 248.24L14.0645 263.76L110.064 287.76C110.704 287.92 111.352 288 112 288C114.072 288 116.096 287.192 117.6 285.712C119.592 283.76 120.424 280.912 119.792 278.208L110.024 235.872L160.616 231.984C163.04 231.792 165.24 230.504 166.608 228.496Z" fill="#E9042A"/>
<path d="M48 136C70.056 136 88 118.056 88 96C88 83.728 83.024 71.712 74.344 63.032C62.512 51.2 56 35.472 56 18.744V16C56 11.576 52.424 8 48 8C43.576 8 40 11.576 40 16V18.744C40 35.472 33.488 51.2 21.656 63.032C12.976 71.712 8 83.728 8 96C8 118.056 25.944 136 48 136ZM32.968 74.344C39.184 68.128 44.232 61.056 48 53.392C51.768 61.056 56.816 68.128 63.032 74.344C68.736 80.048 72 87.936 72 96C72 109.232 61.232 120 48 120C34.768 120 24 109.232 24 96C24 87.936 27.264 80.048 32.968 74.344Z" fill="#E9042A"/>
</svg>
