<svg width="512" height="512" viewBox="0 0 512 512" fill="none" xmlns="http://www.w3.org/2000/svg">
<path d="M256 18.744C256 37.472 263.44 55.44 276.688 68.688C283.928 75.928 288 85.752 288 96C288 113.672 273.672 128 256 128C238.328 128 224 113.672 224 96C224 85.752 228.072 75.928 235.312 68.688C248.56 55.44 256 37.48 256 18.744Z" fill="#F4B2B0"/>
<path d="M128 34.744C128 53.472 135.44 71.44 148.688 84.688C155.928 91.928 160 101.752 160 112C160 129.672 145.672 144 128 144C110.328 144 96 129.672 96 112C96 101.752 100.072 91.928 107.312 84.688C120.56 71.44 128 53.48 128 34.744Z" fill="#F4B2B0"/>
<path d="M384 34.744C384 53.472 391.44 71.44 404.688 84.688C411.928 91.928 416 101.752 416 112C416 129.672 401.672 144 384 144C366.328 144 352 129.672 352 112C352 101.752 356.072 91.928 363.312 84.688C376.56 71.44 384 53.48 384 34.744Z" fill="#F4B2B0"/>
<path d="M56 408H72V424H56V408Z" fill="#E9042A"/>
<path d="M440 408H456V424H440V408Z" fill="#E9042A"/>
<path d="M336 344H176C171.584 344 168 347.584 168 352V384C168 388.416 171.584 392 176 392H336C340.416 392 344 388.416 344 384V352C344 347.584 340.416 344 336 344ZM328 376H184V360H328V376Z" fill="#E9042A"/>
<path d="M496 248H448C444.968 248 442.2 249.712 440.84 252.424L435.256 263.584L396.76 196.216C386.824 178.816 368.184 168 348.144 168H163.856C143.816 168 125.184 178.816 115.232 196.216L76.736 263.584L71.152 252.424C69.8 249.712 67.032 248 64 248H16C11.584 248 8 251.584 8 256V288C8 292.416 11.584 296 16 296H50.376L10.792 329.928C9.016 331.448 8 333.664 8 336V400C8 415.216 14.12 429.016 24 439.12V480C24 493.232 34.768 504 48 504H112C125.232 504 136 493.232 136 480V456H376V480C376 493.232 386.768 504 400 504H464C477.232 504 488 493.232 488 480V439.12C497.88 429.016 504 415.216 504 400V336C504 333.664 502.984 331.448 501.208 329.928L461.624 296H496C500.416 296 504 292.416 504 288V256C504 251.584 500.416 248 496 248ZM129.128 204.152C136.232 191.72 149.536 184 163.856 184H348.144C362.464 184 375.768 191.72 382.872 204.152L426.216 280H412.528L376.176 219.416C369 207.44 355.848 200 341.88 200H170.12C156.152 200 143.008 207.44 135.824 219.416L99.472 280H85.784L129.128 204.152ZM393.872 280H118.128L149.536 227.656C153.848 220.464 161.736 216 170.12 216H341.888C350.272 216 358.152 220.464 362.464 227.656L393.872 280ZM24 264H59.056L67.056 280H24V264ZM85.872 344L128.792 368.52L117.576 376H24V344H85.872ZM120 480C120 484.408 116.408 488 112 488H48C43.592 488 40 484.408 40 480V450.52C47.288 454 55.4 456 64 456H120V480ZM163.312 440L179.312 424H332.688L348.688 440H163.312ZM464 488H400C395.592 488 392 484.408 392 480V456H448C456.6 456 464.712 454 472 450.52V480C472 484.408 468.408 488 464 488ZM488 376H394.424L383.208 368.52L426.128 344H488V376ZM474.376 328H424C422.608 328 421.24 328.36 420.032 329.056L364.032 361.056C361.624 362.432 360.104 364.952 360.008 367.728C359.912 370.496 361.256 373.12 363.568 374.656L387.568 390.656C388.872 391.528 390.424 392 392 392H488V400C488 422.056 470.056 440 448 440H371.312L341.656 410.344C340.16 408.84 338.12 408 336 408H176C173.88 408 171.84 408.84 170.344 410.344L140.688 440H64C41.944 440 24 422.056 24 400V392H120C121.576 392 123.128 391.528 124.44 390.656L148.44 374.656C150.752 373.12 152.096 370.496 152 367.728C151.904 364.952 150.376 362.432 147.976 361.056L91.976 329.056C90.76 328.36 89.392 328 88 328H37.624L74.96 296H80H432H437.04L474.376 328ZM488 280H444.944L452.944 264H488V280Z" fill="#E9042A"/>
<path d="M256 136C278.056 136 296 118.056 296 96C296 83.544 291.152 71.832 282.344 63.032C270.512 51.2 264 35.472 264 18.744V16C264 11.584 260.416 8 256 8C251.584 8 248 11.584 248 16V18.744C248 35.472 241.488 51.2 229.656 63.032C220.848 71.832 216 83.544 216 96C216 118.056 233.944 136 256 136ZM240.968 74.344C247.184 68.128 252.232 61.056 256 53.392C259.768 61.056 264.816 68.128 271.032 74.344C276.816 80.128 280 87.824 280 96C280 109.232 269.232 120 256 120C242.768 120 232 109.232 232 96C232 87.824 235.184 80.128 240.968 74.344Z" fill="#E9042A"/>
<path d="M128 152C150.056 152 168 134.056 168 112C168 99.544 163.152 87.832 154.344 79.032C142.512 67.2 136 51.472 136 34.744V32C136 27.584 132.416 24 128 24C123.584 24 120 27.584 120 32V34.744C120 51.472 113.488 67.2 101.656 79.032C92.848 87.832 88 99.544 88 112C88 134.056 105.944 152 128 152ZM112.968 90.344C119.184 84.128 124.232 77.056 128 69.392C131.768 77.056 136.816 84.128 143.032 90.344C148.816 96.128 152 103.824 152 112C152 125.232 141.232 136 128 136C114.768 136 104 125.232 104 112C104 103.824 107.184 96.128 112.968 90.344Z" fill="#E9042A"/>
<path d="M384 152C406.056 152 424 134.056 424 112C424 99.544 419.152 87.832 410.344 79.032C398.512 67.2 392 51.472 392 34.744V32C392 27.584 388.416 24 384 24C379.584 24 376 27.584 376 32V34.744C376 51.472 369.488 67.2 357.656 79.032C348.848 87.832 344 99.544 344 112C344 134.056 361.944 152 384 152ZM368.968 90.344C375.184 84.128 380.232 77.056 384 69.392C387.768 77.056 392.816 84.128 399.032 90.344C404.816 96.128 408 103.824 408 112C408 125.232 397.232 136 384 136C370.768 136 360 125.232 360 112C360 103.824 363.184 96.128 368.968 90.344Z" fill="#E9042A"/>
</svg>
