<svg width="1527" height="279" viewBox="0 0 1527 279" fill="none" xmlns="http://www.w3.org/2000/svg">
<path d="M264.49 56.8501C263.802 56.7941 263.115 56.8081 262.427 56.8361C267.451 62.6414 267.016 73.077 267.016 73.077C263.424 64.1382 250.934 60.0255 250.934 60.0255C253.446 55.5771 249.165 49.0444 243.608 48.9605C246.766 34.678 235.511 21.5426 221.281 20.1437C210.236 19.0526 200.132 26.2428 197.059 36.8462C217.071 40.5812 215.653 54.2482 215.653 54.2482C204.483 42.5676 187.895 43.4629 173.244 46.2187C171.714 43.5328 169.708 41.0988 167.308 39.1124C162.242 34.9018 155.73 32.4678 148.784 31.5026C139.283 30.6632 132.996 34.6081 128.982 40.2315C148.433 37.5457 153.864 55.2134 153.864 55.2134C143.367 45.5053 134.413 45.6312 127.27 47.1419C119.482 48.7926 113.377 54.2202 111.595 60.3333C110.276 64.8796 112.521 69.6218 115.917 72.7133C104.592 69.4539 91.4145 70.8248 83.9907 80.6029C96.1017 76.1545 104.115 83.9742 104.115 83.9742C87.3307 87.3735 68.2732 93.2487 61.6493 110.93C61.6493 110.93 54.3238 97.7811 72.8341 85.443C65.1577 76.0986 51.896 73.1889 41.2446 79.0222C28.6003 85.9606 24.2921 107.028 31.0141 120.485C23.2255 121.632 13.4441 126.206 10.5813 141.342C6.27299 164.171 23.9131 176.342 23.9131 176.342C23.9131 176.342 33.1753 159.163 50.0436 163.08C50.0576 163.164 50.0717 163.234 50.0857 163.318C43.4198 165.193 36.5153 169.571 34.1015 173.992C24.9236 190.82 39.1255 204.403 43.1952 205.676C43.1952 205.676 36.9784 210.25 39.4904 218.21C41.5252 224.645 47.0264 226.505 51.1242 226.729C50.8856 225.372 50.7593 223.959 50.7593 222.504C50.7593 222.434 50.7453 222.392 50.7312 222.322C49.2016 207.9 49.777 174.985 50.7312 171.222C50.8996 170.564 51.0821 169.935 51.2926 169.305C51.896 167.445 52.6538 165.724 53.4958 164.129C53.8046 163.556 54.1133 163.01 54.4361 162.465C54.9273 161.653 55.4184 160.898 55.9236 160.185C56.2464 159.723 56.5692 159.289 56.892 158.87C59.3759 155.666 61.8458 153.54 63.0386 152.673C63.9929 151.945 64.9753 151.162 65.9997 150.337C68.2451 148.518 70.6448 146.504 73.1147 144.405C79.921 138.642 87.2605 132.347 93.4914 128.402C114.177 115.323 130.722 111.966 140.055 111.392C140.574 111.364 142.426 111.294 145.289 111.21C155.309 110.93 177.931 110.385 201.185 110.007C217.408 109.741 233.939 109.532 246.667 109.546C250.33 109.546 253.67 109.56 256.603 109.602C259.677 109.643 262.315 109.699 264.378 109.797C272.531 110.147 279.562 110.846 285.779 111.896C293.048 113.127 299.195 114.847 304.71 117.057C306.366 114.316 307.461 110.707 306.464 106.3C305.791 103.335 304.373 101.152 302.437 99.6416H338.349L339.106 92.7311L292.178 83.2748C290.635 71.3424 283.716 58.249 264.476 56.8641L264.49 56.8501ZM204.567 81.4003C200.609 82.0717 197.508 85.1632 196.834 89.1081L195.74 95.5009L194.645 89.1081C193.972 85.1632 190.87 82.0717 186.913 81.4003L180.499 80.3092L186.913 79.218C190.87 78.5466 193.972 75.4551 194.645 71.5103L195.726 65.1314L196.105 67.3276L196.82 71.5103C197.494 75.4551 200.595 78.5466 204.553 79.218L210.629 80.2392L210.966 80.2952L210.629 80.3511L204.553 81.3863L204.567 81.4003Z" fill="#E9042A"/>
<path d="M356.648 69.5798C353.21 69.5798 350.417 72.3636 350.417 75.7908C350.417 79.218 353.21 82.0018 356.648 82.0018C360.087 82.0018 362.879 79.218 362.879 75.7908C362.879 72.3636 360.087 69.5798 356.648 69.5798Z" fill="#E9042A"/>
<path d="M186.562 20.0318C192.105 20.0318 196.61 15.5415 196.61 10.0159C196.61 4.49037 192.105 0 186.562 0C181.019 0 176.514 4.49037 176.514 10.0159C176.514 15.5415 181.019 20.0318 186.562 20.0318Z" fill="#E9042A"/>
<path d="M4.74334 104.803C2.1331 104.803 0 106.916 0 109.532C0 112.147 2.11906 114.26 4.74334 114.26C7.36761 114.26 9.48667 112.147 9.48667 109.532C9.48667 106.916 7.36761 104.803 4.74334 104.803Z" fill="#E9042A"/>
<path d="M303.152 61.2565L305.187 73.1889L307.222 61.2565C308.471 53.8985 314.267 48.1211 321.649 46.8761L333.619 44.8478L321.649 42.8194C314.267 41.5744 308.471 35.7971 307.222 28.439L305.187 16.5067L303.152 28.439C301.904 35.7971 296.108 41.5744 288.726 42.8194L276.755 44.8478L288.726 46.8761C296.108 48.1211 301.904 53.8985 303.152 61.2565Z" fill="#E9042A"/>
<path d="M73.1709 59.8017L74.083 65.1454L74.9952 59.8017C75.5566 56.5004 78.1528 53.9265 81.4507 53.3669L86.8115 52.4576L81.4507 51.5484C78.1387 50.9888 75.5566 48.4009 74.9952 45.1136L74.083 39.7699L73.1709 45.1136C72.6095 48.4149 70.0133 50.9888 66.7154 51.5484L61.3546 52.4576L66.7154 53.3669C70.0274 53.9265 72.6095 56.5144 73.1709 59.8017Z" fill="#E9042A"/>
<path d="M397.233 130.011C393.388 129.354 390.371 126.36 389.711 122.513L388.659 116.302L387.606 122.513C386.947 126.346 383.944 129.354 380.084 130.011L373.853 131.06L380.084 132.109C383.93 132.767 386.947 135.76 387.606 139.607L388.659 145.818L389.711 139.607C390.371 135.774 393.374 132.767 397.233 132.109L403.464 131.06L397.233 130.011Z" fill="#E9042A"/>
<path d="M454.504 261.169C470.264 247.055 476.523 222.015 473.085 186.749C471.33 168.746 467.359 152.547 465.057 144.21L466.826 143.202C467.64 142.769 468.439 141.524 467.401 139.593C466.11 137.229 460.679 125.479 458.995 121.268C458.56 120.177 458.195 119.212 457.886 118.344C457.241 116.512 457.718 114.47 459.107 113.113L462.11 110.161C462.812 109.462 462.798 108.329 462.082 107.643L458.518 104.314C458.209 104.034 457.83 103.852 457.409 103.81L408.179 98.4245C406.945 98.2847 405.682 98.3966 404.489 98.7323L400.826 99.7535C400.335 99.8933 399.956 100.215 399.717 100.635L379.902 97.9209C379.93 97.3054 379.509 96.7599 378.891 96.662L340.636 90.5489C339.948 90.437 339.317 90.9266 339.233 91.612L339.149 92.3115L339.106 92.6892L338.349 99.5856L338.236 100.551V100.579C338.152 101.264 338.671 101.88 339.373 101.922L378.049 104.23C378.667 104.272 379.214 103.824 379.312 103.223L399.128 105.936C399.268 106.398 399.577 106.804 400.026 107.042L403.38 108.832C404.475 109.42 405.682 109.797 406.916 109.923L425.146 111.924L432.977 131.284C433.721 133.117 435.769 134.348 438.253 134.459L456.988 135.285C457.016 135.369 457.044 135.467 457.072 135.537C457.157 135.83 457.199 136.25 457.213 136.754C457.227 137.523 457.128 145.175 457.086 145.86C457.086 146.056 457.058 146.238 457.044 146.322C456.834 147.735 458.307 148.042 459.542 147.343L461.493 146.238C467.162 167.221 481.477 231.681 451.852 258.204C439.895 268.905 425.146 270.192 410.944 269.576C415.182 266.065 418.592 260.568 420.683 253.923C423.925 253.545 426.886 253.168 429.581 252.79C437.032 251.741 442.506 248.23 446.252 243.026C445.845 243.082 445.425 243.124 444.989 243.18C437.748 244.061 428.57 244.984 428.57 244.984C428.57 244.984 434.45 242.089 440.471 238.773C441.102 238.423 441.748 238.074 442.379 237.71C447.403 234.87 450.14 231.009 451.95 228.044C452.175 226.617 452.357 225.162 452.469 223.665C452.006 223.847 451.529 223.959 451.024 223.959C447.824 223.959 445.228 219.958 445.228 215.02C445.228 210.082 447.824 206.082 451.024 206.082C451.206 206.082 451.375 206.096 451.557 206.124C450.182 201.172 446.533 194.457 442.183 187.98C443.011 191.799 443.025 195.24 442.113 197.465C439.32 204.291 430.802 205.746 411.267 207.564C408.194 207.858 404.84 208.152 401.191 208.474C398.805 208.684 396.307 208.921 393.655 209.173C391.915 209.341 390.104 209.481 388.238 209.621C384 209.929 379.481 210.18 374.836 210.376C370.303 210.558 365.644 210.698 360.985 210.796C345.604 211.118 330.237 210.992 319.67 210.824C312.106 210.698 305.201 206.851 301.272 200.682C298.999 197.115 295.673 191.058 291.084 185.434C286.579 179.937 280.853 174.859 273.668 172.942C267.1 171.194 256.07 169.725 245.559 168.62C239.272 167.948 233.167 167.417 228.34 167.025C223.989 166.801 222.039 166.591 222.039 166.591C220.818 166.591 219.667 166.48 218.544 166.284C218.39 166.284 218.278 166.27 218.278 166.27C218.278 166.27 218.348 166.27 218.432 166.27C213.534 165.43 209.591 162.884 206.237 159.919C196.034 149.343 191.46 138.684 182.885 123.926C180.233 119.366 186.393 118.289 194.154 117.967C196.371 117.883 198.603 117.785 200.834 117.687C212.412 117.197 224.144 116.694 235.749 116.414C243.847 116.218 251.874 116.12 259.761 116.232C263.017 116.274 266.258 116.358 269.458 116.484C274.103 116.666 278.678 116.974 283.253 117.533C289.175 118.247 295.111 119.38 301.244 121.156C309.664 123.604 318.463 127.269 328.132 132.795C330.251 133.83 332.567 134.879 334.995 135.97C329.928 132.291 325.382 129.004 322.126 126.682C316.639 122.779 311.081 119.547 304.696 116.988C299.181 114.777 293.034 113.057 285.765 111.826C279.562 110.777 272.531 110.077 264.364 109.727C262.301 109.643 259.663 109.574 256.589 109.532C253.656 109.49 250.316 109.476 246.653 109.476C233.911 109.476 217.394 109.671 201.171 109.937C177.917 110.329 155.295 110.86 145.275 111.14C142.412 111.224 140.574 111.28 140.041 111.322C130.708 111.896 114.163 115.253 93.4774 128.332C87.2465 132.277 79.907 138.572 73.1007 144.335C70.6308 146.434 68.2311 148.448 65.9857 150.267C64.9753 151.092 63.9789 151.875 63.0246 152.603C61.8177 153.47 59.3619 155.596 56.8779 158.8C56.5552 159.219 56.2324 159.653 55.9096 160.115C55.4044 160.828 54.8992 161.598 54.4221 162.395C54.0993 162.926 53.7905 163.486 53.4818 164.06C52.6398 165.64 51.882 167.375 51.2785 169.235C51.068 169.865 50.8856 170.494 50.7172 171.152C49.7489 174.915 49.1875 207.83 50.7172 222.253C50.7172 222.323 50.7312 222.378 50.7453 222.434C50.7453 223.889 50.8716 225.288 51.1101 226.659C51.5031 228.855 52.1767 230.912 53.2713 232.786C54.8571 235.514 58.1409 237.92 62.2668 240.018C65.6068 247.236 70.7431 252.412 76.7073 254.175V254.217L77.0722 254.287C77.8861 254.511 78.7141 254.664 79.5561 254.748L202.237 277.592C204.623 278.585 207.149 279.075 209.773 278.991L460.019 274.57L432.71 272.01C440.386 270.332 447.852 267.072 454.49 261.127L454.504 261.169ZM438.745 132.123C436.247 131.997 434.184 130.724 433.482 128.864L427.167 112.161L432.275 112.721C433.945 115.785 435.91 118.932 436.948 119.058C437.538 119.128 441.186 118.75 442.59 120.792C443.081 121.506 446.463 125.898 445.088 129.493C444.456 131.158 446.561 129.997 447.193 128.612C448.273 126.248 448.161 125.409 447.038 122.205C445.916 119.016 445.888 117.645 447.038 117.03C447.656 116.694 449.578 116.344 450.364 118.624C451.375 121.618 454.322 128.514 455.964 132.599C450.659 132.641 443.305 132.347 438.759 132.123H438.745ZM190.519 256.735C190.154 255.825 189.804 254.888 189.495 253.909C188.106 249.6 187.306 244.704 187.264 239.473C187.264 237.542 187.348 235.654 187.53 233.807C189.649 234.605 192.288 235.346 195.263 235.626C195.473 235.64 195.656 235.654 195.852 235.682C195.768 236.983 195.712 238.354 195.768 239.85C195.852 242.047 196.245 244.117 196.862 246.033C196.245 246.565 195.67 247.152 195.136 247.81C193.396 249.936 192.245 252.132 191.474 253.979C191.039 255.042 190.73 255.979 190.519 256.735ZM58.1971 208.446C58.169 207.327 58.169 206.124 58.1971 204.879C58.2532 201.941 58.4637 198.724 58.9549 195.534C59.0531 194.933 59.1514 194.331 59.2636 193.73C60.3021 188.288 63.614 183.532 67.9223 180.426C70.7571 178.384 74.0409 177.069 77.395 176.775C78.3633 176.691 79.3035 176.663 80.2578 176.663C86.2501 176.635 91.9056 178.258 96.4946 182.776C99.3995 179.293 105.097 174.803 115.3 174.607C146.061 174.033 187.264 179.755 187.264 179.755C187.264 179.755 153.723 178.132 132.743 180.706C125.179 181.629 119.482 183.714 115.173 186.274C109.518 189.617 106.276 193.758 104.438 197.185C105.013 199.115 105.42 201.032 105.687 202.892C106.037 205.27 106.164 207.564 106.136 209.733C106.094 213.202 105.673 216.363 105.125 219.007C104.087 224.057 102.627 227.261 102.627 227.261C102.627 227.261 102.725 215.398 99.8627 204.319C99.8206 204.137 99.7644 203.941 99.7223 203.759C98.5716 199.465 96.9717 195.324 94.7404 192.093C93.1827 189.841 91.4846 187.994 89.7024 186.497C88.7621 185.714 87.8078 185.029 86.8395 184.441C85.1134 183.392 83.3452 182.637 81.591 182.161C75.4022 180.44 69.4239 182.021 66.112 185.308C61.6774 189.729 59.6285 196.373 58.8707 203.27C58.6181 205.592 58.5058 207.942 58.5058 210.25C58.5058 211.425 58.5339 212.586 58.59 213.719C58.6462 214.867 58.7163 216 58.8005 217.091C58.8005 217.091 58.6602 216.056 58.5199 214.349C58.3936 212.852 58.2532 210.81 58.2111 208.446H58.1971ZM221.295 255.042C221.155 253.112 220.635 251.181 219.274 250.16C219.106 250.034 218.923 249.922 218.741 249.81C219.19 248.439 219.555 246.957 219.835 245.39C221.66 246.845 224.003 244.914 225.238 243.627C224.859 247.754 223.989 251.629 222.74 255.084C222.277 256.371 221.758 257.616 221.183 258.777C221.309 257.728 221.393 256.385 221.295 255.028V255.042ZM198.771 219.427C197.241 217.594 195.375 216.363 193.607 215.538C194.673 213.957 195.838 212.558 197.087 211.383C200.385 209.761 204.258 208.809 208.356 208.67C206.419 210.824 205.044 215.006 205.493 217.846C205.577 218.392 205.69 218.951 205.816 219.511C204.146 220.098 202.448 221.091 200.918 222.602C200.216 221.413 199.501 220.322 198.757 219.441L198.771 219.427ZM219.821 232.199C219.344 229.513 218.572 227.093 217.59 225.064C218.334 223.819 219.007 222.462 219.499 221.022C219.92 219.763 220.214 218.56 220.411 217.412C222.404 220.98 223.905 225.316 224.747 230.142C224.059 230.324 223.358 230.534 222.684 230.8C221.59 231.219 220.649 231.695 219.835 232.199H219.821ZM234.935 211.048C236.142 214.783 236.591 219.245 236.634 223.609C236.676 228.114 236.283 232.506 235.876 235.864C235.427 239.501 234.935 241.921 234.935 241.921C234.514 232.017 233.223 223.372 230.178 216.321C228.719 212.95 226.852 209.942 224.48 207.355C221.197 203.787 217.576 201.102 213.829 199.297C213.408 199.087 212.973 198.877 212.538 198.696C203.655 194.919 194.238 196.206 187.264 203.256C180.064 210.516 178.128 227.135 179.91 240.62C179.91 240.62 177.524 230.436 178.507 218.238C179.91 200.668 191.46 190.778 202.574 189.253C211.149 187.77 221 189.673 228.171 198.29C230.88 201.535 233.209 205.732 234.935 211.076V211.048ZM90.3058 229.597C89.983 229.359 89.6462 229.163 89.3094 228.995C89.7445 227.778 90.0953 226.435 90.3479 225.008C90.5023 225.148 90.6707 225.288 90.8251 225.428C92.4249 226.715 94.5018 225.05 95.6105 223.917C95.1193 228.883 93.8282 233.416 91.9477 237.164C92.2144 234.94 92.3407 231.135 90.2918 229.611L90.3058 229.597ZM95.2456 212.083C94.6422 212.251 94.0247 212.418 93.4353 212.656C92.2284 213.118 91.232 213.65 90.39 214.209C89.9971 211.971 89.3656 209.956 88.5657 208.264C88.8604 207.816 89.141 207.355 89.4077 206.865C89.8988 205.984 90.3339 205.06 90.6707 204.081C91.0496 202.99 91.3162 201.941 91.4987 200.948C92.3266 202.431 93.0704 204.053 93.6739 205.816C94.3475 207.76 94.8808 209.859 95.2456 212.083ZM71.4167 195.184C73.8725 194.765 76.5389 194.681 79.3597 194.989C79.4579 194.989 79.5561 195.017 79.6684 195.031C78.6299 196.961 78.0265 199.451 78.2931 201.283C78.4054 202.039 78.5597 202.794 78.7562 203.55C77.3388 204.025 75.8934 204.837 74.5883 206.096C74.3216 205.606 74.0409 205.144 73.7603 204.697C73.2831 203.941 72.806 203.256 72.3148 202.668C70.9816 201.06 69.3397 199.983 67.782 199.255C68.8766 197.66 70.0835 196.29 71.3886 195.198L71.4167 195.184ZM123.299 243.054L101.645 238.144L102.894 235.738L178.282 248.425L180.134 248.733L181.594 256.343L123.299 243.082V243.054ZM354.656 222.462C356.115 222.42 357.603 222.378 359.104 222.336C361.378 222.267 363.707 222.197 366.079 222.113C368.029 222.043 370.008 221.973 372.001 221.889C373.011 221.847 374.022 221.805 375.046 221.763C378.162 221.623 381.319 221.483 384.477 221.315C384.786 221.301 385.094 221.287 385.403 221.259C388.645 221.078 391.887 220.896 395.114 220.672C403.198 220.14 411.098 219.469 418.34 218.643C418.55 218.616 418.761 218.601 418.971 218.574C421.132 218.322 423.252 218.056 425.272 217.776C430.198 217.105 434.563 220.952 434.464 225.918C434.422 227.848 433.692 229.625 432.5 230.995C431.237 232.45 429.468 233.471 427.434 233.737C426.072 233.919 424.501 234.115 422.802 234.325C416.558 235.094 408.137 236.031 398.468 236.871C395.521 237.123 392.448 237.374 389.304 237.598C386.287 237.822 383.2 238.018 380.056 238.2C380.042 238.2 380.014 238.2 380 238.2C379.832 238.2 379.663 238.214 379.481 238.228C379.383 238.228 379.284 238.228 379.186 238.242C379.144 238.242 379.088 238.242 379.046 238.242C377.825 238.312 376.59 238.368 375.341 238.437C374.415 238.479 373.503 238.521 372.562 238.563C371.131 238.619 369.685 238.675 368.24 238.731C364.156 238.871 360.03 238.955 355.905 238.983C354.627 238.983 353.35 238.983 352.087 238.983C346.348 238.969 340.622 238.815 335.051 238.507C335.051 238.507 341.941 238.186 352.101 237.472C353.336 237.388 354.613 237.29 355.933 237.192C359.287 236.941 362.907 236.661 366.696 236.325C367.258 236.283 367.819 236.227 368.394 236.171C369.461 236.073 370.556 235.975 371.636 235.878C371.805 235.864 371.987 235.85 372.155 235.836C372.366 235.822 372.562 235.794 372.773 235.78C373.208 235.738 373.643 235.696 374.078 235.654C374.485 235.612 374.892 235.57 375.285 235.528C376.253 235.43 377.207 235.332 378.19 235.234C378.653 235.192 379.116 235.136 379.593 235.094C380.449 235.01 381.319 234.912 382.175 234.814C384.463 234.563 386.75 234.311 389.038 234.031C392.111 233.653 395.17 233.262 398.16 232.842C404.447 231.947 410.453 230.94 415.744 229.792C415.744 229.792 408.53 230.212 397.851 230.716C394.988 230.856 391.887 230.995 388.603 231.121C385.459 231.247 382.175 231.387 378.779 231.513C378.597 231.513 378.4 231.513 378.218 231.527C377.418 231.555 376.618 231.583 375.804 231.611C375.608 231.611 375.425 231.611 375.229 231.625C373.91 231.667 372.576 231.709 371.243 231.751C370.836 231.751 370.429 231.779 370.022 231.793C365.504 231.933 360.929 232.059 356.396 232.143C355.091 232.171 353.785 232.199 352.48 232.213C343.962 232.352 335.809 232.352 328.96 232.157C328.96 232.157 339.149 231.429 352.733 230.408C354.038 230.31 355.371 230.212 356.733 230.114C360.999 229.792 365.518 229.457 370.092 229.093C371.538 228.981 372.997 228.869 374.443 228.757C374.695 228.743 374.934 228.715 375.187 228.701C377.264 228.533 379.355 228.38 381.418 228.212C383.593 228.044 385.754 227.862 387.873 227.694C391.073 227.428 394.174 227.177 397.121 226.925C405.148 226.253 411.969 225.624 416.122 225.162H353.842C337.787 225.162 319.431 222.882 319.431 222.882C319.431 222.882 334.588 222.938 354.684 222.406L354.656 222.462ZM328.932 251.167C328.932 251.167 274.622 251.489 269.486 250.943C267.479 250.734 265.318 248.453 263.367 245.53C260.336 240.969 257.796 234.842 257.151 232.394C257.151 232.394 260.28 231.639 263.676 233.192C264.448 233.541 265.234 234.017 266.006 234.647C269.233 237.29 274.075 243.292 284.825 245.558C295.574 247.824 328.918 251.181 328.918 251.181L328.932 251.167ZM295.799 227.065C295.799 232.003 293.203 236.003 290.003 236.003C286.803 236.003 284.207 232.003 284.207 227.065C284.207 222.127 286.803 218.126 290.003 218.126C293.203 218.126 295.799 222.127 295.799 227.065ZM88.3551 145.874C88.4674 145.748 88.5657 145.636 88.6779 145.511C96.0455 137.327 101.013 133.998 115.594 126.752C123.65 122.751 135.087 119.464 140.911 118.904C142.16 118.778 143.647 118.694 145.233 118.61C149.471 118.414 154.425 118.372 157.414 118.484C166.676 118.848 171.139 121.506 173.637 127.339C177.075 135.397 178.324 140.992 179.882 149.679C179.868 149.651 179.854 149.623 179.84 149.595C177.286 144.461 171.49 141.804 165.105 141.943C159.21 142.069 152.292 143.328 150.468 146.769C151.745 146.853 153.19 146.951 154.874 147.077C164.782 147.791 167.911 151.078 167.911 151.078C167.911 151.078 158.144 151.512 149.738 151.022C149.794 154.491 151.211 158.142 154.972 159.905C157.569 161.136 175.167 161.444 179.068 163.262C179.868 163.64 180.71 164.129 181.552 164.661C180.92 165.333 179.938 165.766 178.745 165.682C178.745 165.682 116.324 160.87 95.8631 155.764C94.6983 155.47 93.6879 155.163 92.8038 154.841C84.3977 151.749 87.1623 147.217 88.3692 145.874H88.3551ZM62.0703 221.385C62.0703 220.994 62.0282 220.616 62.0282 220.21C62.0282 218.518 62.1265 216.867 62.3089 215.244C64.1754 215.944 66.5049 216.587 69.1432 216.853C69.5081 216.895 69.873 216.923 70.2098 216.951C70.1537 217.72 70.1116 218.518 70.1116 219.357C70.1116 219.749 70.0975 220.112 70.1116 220.518C70.1677 222.322 70.4764 224.015 70.9676 225.596C70.2519 226.155 69.5642 226.785 68.9468 227.526C66.5049 230.45 65.3261 233.527 64.8069 235.318C63.179 231.303 62.1966 226.533 62.0563 221.385H62.0703ZM69.7467 243.222C69.6625 243.124 69.5642 243.04 69.48 242.942C71.964 240.76 75.0233 237.64 76.4126 234.605C76.4828 234.451 76.5529 234.283 76.6231 234.129C78.3212 235.514 80.1315 236.311 81.7313 236.409C81.7734 236.409 81.8015 236.409 81.8436 236.409C81.8997 237.486 82.012 238.493 82.2225 239.333C82.6996 241.137 83.8785 243.543 84.959 245.502C84.103 246.047 83.2329 246.523 82.3207 246.845C82.1243 246.915 81.9278 246.957 81.7454 247.013C80.8612 247.278 79.9491 247.46 79.0088 247.488C75.5846 247.586 72.4131 246.005 69.7467 243.236V243.222ZM115.37 251.307C115.496 251.223 115.636 251.139 115.763 251.055C116.394 251.125 117.04 251.195 117.699 251.265C117.952 251.307 118.219 251.363 118.527 251.419L115.37 251.307ZM209.717 270.066C208.721 270.374 207.682 270.542 206.63 270.584C202.644 270.709 198.925 268.807 195.824 265.436C197.466 263.953 199.332 262.106 200.918 260.12C201.957 258.819 202.855 257.476 203.486 256.119C205.535 257.812 207.696 258.805 209.619 258.931C209.689 258.931 209.745 258.931 209.801 258.931C209.872 259.658 209.97 260.344 210.124 260.959C210.152 261.057 210.166 261.155 210.194 261.253C210.742 263.323 212.103 266.079 213.338 268.317C212.173 269.087 210.966 269.66 209.703 270.052L209.717 270.066ZM323.95 261.855C335.514 261.029 346.32 260.246 356.354 259.504C357.322 261.575 358.417 263.477 359.637 265.198L323.95 261.855Z" fill="white"/>
<path d="M359.904 146.322C356.747 143.356 351.231 142.475 344.537 142.965C350.754 147.497 357.055 152.113 362.332 155.988C363.819 153.722 363.3 149.511 359.918 146.322H359.904Z" fill="white"/>
<path d="M325.255 166.214C343.288 170.187 352.045 186.33 352.045 186.33C352.045 186.33 346.235 179.881 335.837 174.075C326.855 169.054 314.042 167.403 305.342 166.885C291.982 167.319 280.516 167.557 270.721 167.655C291.434 170.159 305.51 180.93 313.537 187.952C315.67 189.813 317.382 191.421 318.674 192.541C325.522 198.444 334.433 201.703 343.653 201.955C358.094 202.347 378.344 202.626 389.585 201.633C390.399 201.563 391.185 201.479 391.901 201.395C409.064 199.325 431.686 199.815 431.854 185.322C431.98 173.572 423.364 167.906 419.196 165.864C405.681 162.045 381.951 164.661 376.45 165.346C376.057 165.43 375.65 165.5 375.271 165.5C375.271 165.5 373.011 165.374 366.037 165.388C383.551 169.641 392.041 185.322 392.041 185.322C392.041 185.322 386.287 178.762 375.832 173.068C366.177 167.822 353.294 166.158 343.85 165.71C338.531 165.836 332.37 166.004 325.255 166.228V166.214Z" fill="white"/>
<path d="M688.8 155.2C687.333 150.4 685.667 145.467 683.8 140.4C682.067 135.333 680.333 130.267 678.6 125.2H624.6C622.867 130.267 621.067 135.333 619.2 140.4C617.467 145.467 615.867 150.4 614.4 155.2H582C587.2 140.267 592.133 126.467 596.8 113.8C601.467 101.133 606 89.2 610.4 78C614.933 66.8 619.333 56.2 623.6 46.2C628 36.0667 632.533 26.2 637.2 16.6H667C671.533 26.2 676 36.0667 680.4 46.2C684.8 56.2 689.2 66.8 693.6 78C698.133 89.2 702.733 101.133 707.4 113.8C712.067 126.467 717 140.267 722.2 155.2H688.8ZM651.4 48C650.733 50 649.733 52.7333 648.4 56.2C647.067 59.6667 645.533 63.6667 643.8 68.2C642.067 72.7333 640.133 77.7333 638 83.2C636 88.6667 633.933 94.4 631.8 100.4H671.2C669.067 94.4 667 88.6667 665 83.2C663 77.7333 661.067 72.7333 659.2 68.2C657.467 63.6667 655.933 59.6667 654.6 56.2C653.267 52.7333 652.2 50 651.4 48Z" fill="white"/>
<path d="M827.941 151.6C822.874 153.067 816.341 154.4 808.341 155.6C800.341 156.933 791.941 157.6 783.141 157.6C774.207 157.6 766.741 156.4 760.741 154C754.874 151.6 750.207 148.267 746.741 144C743.274 139.6 740.807 134.4 739.341 128.4C737.874 122.4 737.141 115.8 737.141 108.6V50H766.941V105C766.941 114.6 768.207 121.533 770.741 125.8C773.274 130.067 778.007 132.2 784.941 132.2C787.074 132.2 789.341 132.133 791.741 132C794.141 131.733 796.274 131.467 798.141 131.2V50H827.941V151.6Z" fill="white"/>
<path d="M854.914 23.8L884.714 19V50H920.514V74.8H884.714V111.8C884.714 118.067 885.781 123.067 887.914 126.8C890.181 130.533 894.647 132.4 901.314 132.4C904.514 132.4 907.781 132.133 911.114 131.6C914.581 130.933 917.714 130.067 920.514 129L924.714 152.2C921.114 153.667 917.114 154.933 912.714 156C908.314 157.067 902.914 157.6 896.514 157.6C888.381 157.6 881.647 156.533 876.314 154.4C870.981 152.133 866.714 149.067 863.514 145.2C860.314 141.2 858.047 136.4 856.714 130.8C855.514 125.2 854.914 119 854.914 112.2V23.8Z" fill="white"/>
<path d="M1039.27 102.4C1039.27 110.667 1038.08 118.267 1035.68 125.2C1033.28 132 1029.81 137.867 1025.27 142.8C1020.74 147.6 1015.28 151.333 1008.88 154C1002.61 156.667 995.542 158 987.675 158C979.942 158 972.875 156.667 966.475 154C960.208 151.333 954.808 147.6 950.275 142.8C945.742 137.867 942.208 132 939.675 125.2C937.142 118.267 935.875 110.667 935.875 102.4C935.875 94.1333 937.142 86.6 939.675 79.8C942.342 73 945.942 67.2 950.475 62.4C955.142 57.6 960.608 53.8667 966.875 51.2C973.275 48.5333 980.208 47.2 987.675 47.2C995.275 47.2 1002.21 48.5333 1008.48 51.2C1014.88 53.8667 1020.34 57.6 1024.88 62.4C1029.41 67.2 1032.94 73 1035.48 79.8C1038.01 86.6 1039.27 94.1333 1039.27 102.4ZM1008.88 102.4C1008.88 93.2 1007.01 86 1003.27 80.8C999.675 75.4667 994.475 72.8 987.675 72.8C980.875 72.8 975.608 75.4667 971.875 80.8C968.142 86 966.275 93.2 966.275 102.4C966.275 111.6 968.142 118.933 971.875 124.4C975.608 129.733 980.875 132.4 987.675 132.4C994.475 132.4 999.675 129.733 1003.27 124.4C1007.01 118.933 1008.88 111.6 1008.88 102.4Z" fill="white"/>
<path d="M1131.96 40.6C1117.43 40.6 1106.89 44.6667 1100.36 52.8C1093.96 60.8 1090.76 71.8 1090.76 85.8C1090.76 92.6 1091.56 98.8 1093.16 104.4C1094.76 109.867 1097.16 114.6 1100.36 118.6C1103.56 122.6 1107.56 125.733 1112.36 128C1117.16 130.133 1122.76 131.2 1129.16 131.2C1132.63 131.2 1135.56 131.133 1137.96 131C1140.49 130.867 1142.69 130.6 1144.56 130.2V82H1175.76V150.6C1172.03 152.067 1166.03 153.6 1157.76 155.2C1149.49 156.933 1139.29 157.8 1127.16 157.8C1116.76 157.8 1107.29 156.2 1098.76 153C1090.36 149.8 1083.16 145.133 1077.16 139C1071.16 132.867 1066.49 125.333 1063.16 116.4C1059.96 107.467 1058.36 97.2667 1058.36 85.8C1058.36 74.2 1060.16 63.9333 1063.76 55C1067.36 46.0667 1072.29 38.5333 1078.56 32.4C1084.83 26.1333 1092.16 21.4 1100.56 18.2C1109.09 15 1118.16 13.4 1127.76 13.4C1134.29 13.4 1140.16 13.8667 1145.36 14.8C1150.69 15.6 1155.23 16.6 1158.96 17.8C1162.83 18.8667 1165.96 20 1168.36 21.2C1170.89 22.4 1172.69 23.3333 1173.76 24L1164.76 49C1160.49 46.7333 1155.56 44.8 1149.96 43.2C1144.49 41.4667 1138.49 40.6 1131.96 40.6Z" fill="white"/>
<path d="M1244.79 157.2C1236.12 157.067 1229.06 156.133 1223.59 154.4C1218.26 152.667 1213.99 150.267 1210.79 147.2C1207.72 144 1205.59 140.2 1204.39 135.8C1203.32 131.267 1202.79 126.2 1202.79 120.6V4.8L1232.59 0V114.6C1232.59 117.267 1232.79 119.667 1233.19 121.8C1233.59 123.933 1234.32 125.733 1235.39 127.2C1236.59 128.667 1238.26 129.867 1240.39 130.8C1242.52 131.733 1245.39 132.333 1248.99 132.6L1244.79 157.2Z" fill="white"/>
<path d="M1364.47 102.4C1364.47 110.667 1363.27 118.267 1360.87 125.2C1358.47 132 1355 137.867 1350.47 142.8C1345.94 147.6 1340.47 151.333 1334.07 154C1327.8 156.667 1320.74 158 1312.87 158C1305.14 158 1298.07 156.667 1291.67 154C1285.4 151.333 1280 147.6 1275.47 142.8C1270.94 137.867 1267.4 132 1264.87 125.2C1262.34 118.267 1261.07 110.667 1261.07 102.4C1261.07 94.1333 1262.34 86.6 1264.87 79.8C1267.54 73 1271.14 67.2 1275.67 62.4C1280.34 57.6 1285.8 53.8667 1292.07 51.2C1298.47 48.5333 1305.4 47.2 1312.87 47.2C1320.47 47.2 1327.4 48.5333 1333.67 51.2C1340.07 53.8667 1345.54 57.6 1350.07 62.4C1354.6 67.2 1358.14 73 1360.67 79.8C1363.2 86.6 1364.47 94.1333 1364.47 102.4ZM1334.07 102.4C1334.07 93.2 1332.2 86 1328.47 80.8C1324.87 75.4667 1319.67 72.8 1312.87 72.8C1306.07 72.8 1300.8 75.4667 1297.07 80.8C1293.34 86 1291.47 93.2 1291.47 102.4C1291.47 111.6 1293.34 118.933 1297.07 124.4C1300.8 129.733 1306.07 132.4 1312.87 132.4C1319.67 132.4 1324.87 129.733 1328.47 124.4C1332.2 118.933 1334.07 111.6 1334.07 102.4Z" fill="white"/>
<path d="M1449.21 94.8C1446.54 104.933 1443.68 115 1440.61 125C1437.68 135 1434.54 145.067 1431.21 155.2H1408.01C1405.61 149.6 1403.01 142.933 1400.21 135.2C1397.41 127.467 1394.48 119.067 1391.41 110C1388.48 100.8 1385.41 91.1333 1382.21 81C1379.14 70.7333 1376.14 60.4 1373.21 50H1404.61C1405.68 54.8 1406.81 60.0667 1408.01 65.8C1409.34 71.4 1410.68 77.2 1412.01 83.2C1413.48 89.2 1414.94 95.2667 1416.41 101.4C1418.01 107.4 1419.61 113.2 1421.21 118.8C1422.94 112.933 1424.61 106.933 1426.21 100.8C1427.94 94.6667 1429.54 88.6667 1431.01 82.8C1432.61 76.8 1434.08 71.0667 1435.41 65.6C1436.88 60 1438.14 54.8 1439.21 50H1460.81C1461.88 54.8 1463.08 60 1464.41 65.6C1465.74 71.0667 1467.14 76.8 1468.61 82.8C1470.08 88.6667 1471.61 94.6667 1473.21 100.8C1474.81 106.933 1476.48 112.933 1478.21 118.8C1479.81 113.2 1481.41 107.4 1483.01 101.4C1484.61 95.2667 1486.08 89.2 1487.41 83.2C1488.88 77.2 1490.21 71.4 1491.41 65.8C1492.74 60.0667 1493.94 54.8 1495.01 50H1526.01C1523.08 60.4 1520.01 70.7333 1516.81 81C1513.74 91.1333 1510.68 100.8 1507.61 110C1504.68 119.067 1501.74 127.467 1498.81 135.2C1496.01 142.933 1493.41 149.6 1491.01 155.2H1467.81C1464.48 145.067 1461.21 135 1458.01 125C1454.81 115 1451.88 104.933 1449.21 94.8Z" fill="white"/>
<path d="M595.851 234.613C601.44 234.613 605.511 235.839 608.062 238.292C610.654 240.703 611.95 244.034 611.95 248.285C611.95 250.206 611.667 252.045 611.1 253.802C610.533 255.519 609.581 257.072 608.245 258.462C606.949 259.811 605.227 260.873 603.081 261.65C600.934 262.426 598.281 262.815 595.122 262.815H591.173V278.387H582V234.613H595.851ZM595.365 242.215H591.173V255.213H594.211C595.953 255.213 597.451 254.988 598.707 254.538C599.962 254.089 600.934 253.373 601.623 252.392C602.311 251.411 602.656 250.144 602.656 248.591C602.656 246.425 602.068 244.831 600.894 243.809C599.719 242.747 597.876 242.215 595.365 242.215Z" fill="white" fill-opacity="0.5"/>
<path d="M654.655 234.613C658.583 234.613 661.823 235.104 664.375 236.084C666.926 237.025 668.83 238.475 670.085 240.437C671.341 242.358 671.969 244.79 671.969 247.733C671.969 249.736 671.584 251.493 670.814 253.005C670.085 254.477 669.093 255.744 667.838 256.807C666.623 257.828 665.306 258.666 663.889 259.32L676.647 278.387H666.44L656.113 261.589H651.192V278.387H642.018V234.613H654.655ZM653.986 242.215H651.192V254.048H654.169C656.194 254.048 657.834 253.823 659.089 253.373C660.345 252.924 661.256 252.249 661.823 251.35C662.39 250.41 662.674 249.286 662.674 247.978C662.674 246.589 662.35 245.485 661.702 244.668C661.094 243.809 660.142 243.196 658.846 242.828C657.591 242.42 655.971 242.215 653.986 242.215Z" fill="white" fill-opacity="0.5"/>
<path d="M728.963 278.387H703.994V234.613H728.963V242.215H713.168V251.841H727.87V259.443H713.168V270.723H728.963V278.387Z" fill="white" fill-opacity="0.5"/>
<path d="M778.206 278.387L767.757 244.054H767.514C767.555 244.872 767.615 246.098 767.696 247.733C767.777 249.368 767.858 251.125 767.939 253.005C768.02 254.845 768.061 256.52 768.061 258.033V278.387H759.86V234.613H772.374L782.641 268.087H782.824L793.698 234.613H806.213V278.387H797.647V257.665C797.647 256.275 797.667 254.681 797.708 252.883C797.789 251.084 797.849 249.388 797.89 247.794C797.971 246.159 798.032 244.933 798.072 244.116H797.829L786.651 278.387H778.206Z" fill="white" fill-opacity="0.5"/>
<path d="M855.261 278.387H835.517V273.114L840.802 270.662V242.338L835.517 239.886V234.613H855.261V239.886L849.976 242.338V270.662L855.261 273.114V278.387Z" fill="white" fill-opacity="0.5"/>
<path d="M919.82 262.937C919.82 265.962 919.152 268.7 917.815 271.153C916.519 273.564 914.535 275.485 911.862 276.916C909.229 278.305 905.888 279 901.838 279C896.087 279 891.712 277.529 888.715 274.586C885.718 271.602 884.22 267.678 884.22 262.815V234.613H893.393V261.405C893.393 265.001 894.122 267.535 895.58 269.007C897.038 270.478 899.205 271.214 902.081 271.214C904.106 271.214 905.746 270.866 907.002 270.172C908.257 269.477 909.168 268.394 909.735 266.922C910.343 265.451 910.647 263.591 910.647 261.343V234.613H919.82V262.937Z" fill="white" fill-opacity="0.5"/>
<path d="M970.661 278.387L960.211 244.054H959.968C960.009 244.872 960.07 246.098 960.151 247.733C960.232 249.368 960.313 251.125 960.394 253.005C960.475 254.845 960.515 256.52 960.515 258.033V278.387H952.314V234.613H964.828L975.095 268.087H975.278L986.152 234.613H998.667V278.387H990.101V257.665C990.101 256.275 990.121 254.681 990.162 252.883C990.243 251.084 990.304 249.388 990.344 247.794C990.425 246.159 990.486 244.933 990.526 244.116H990.283L979.105 278.387H970.661Z" fill="white" fill-opacity="0.5"/>
<path d="M1087.55 241.725C1085.81 241.725 1084.25 242.072 1082.88 242.767C1081.54 243.462 1080.41 244.463 1079.47 245.771C1078.54 247.038 1077.83 248.591 1077.35 250.431C1076.9 252.27 1076.68 254.334 1076.68 256.623C1076.68 259.729 1077.04 262.386 1077.77 264.593C1078.54 266.759 1079.74 268.414 1081.36 269.559C1082.98 270.703 1085.04 271.275 1087.55 271.275C1089.34 271.275 1091.1 271.071 1092.84 270.662C1094.62 270.253 1096.55 269.681 1098.61 268.946V276.732C1096.71 277.508 1094.82 278.08 1092.96 278.448C1091.1 278.816 1089.01 279 1086.7 279C1082.25 279 1078.56 278.08 1075.65 276.241C1072.77 274.361 1070.64 271.745 1069.27 268.394C1067.89 265.001 1067.2 261.057 1067.2 256.561C1067.2 253.251 1067.65 250.226 1068.54 247.488C1069.43 244.708 1070.73 242.317 1072.43 240.315C1074.17 238.312 1076.29 236.759 1078.81 235.655C1081.36 234.552 1084.27 234 1087.55 234C1089.7 234 1091.85 234.286 1093.99 234.858C1096.18 235.39 1098.27 236.125 1100.25 237.065L1097.27 244.606C1095.65 243.83 1094.01 243.155 1092.35 242.583C1090.73 242.011 1089.13 241.725 1087.55 241.725Z" fill="white" fill-opacity="0.5"/>
<path d="M1156.25 278.387L1153.09 267.965H1137.29L1134.13 278.387H1124.23L1139.54 234.429H1150.78L1166.15 278.387H1156.25ZM1147.74 250.001C1147.54 249.307 1147.28 248.428 1146.95 247.365C1146.63 246.302 1146.3 245.219 1145.98 244.116C1145.66 243.012 1145.39 242.052 1145.19 241.234C1144.99 242.052 1144.7 243.074 1144.34 244.3C1144.02 245.485 1143.69 246.629 1143.37 247.733C1143.08 248.796 1142.86 249.552 1142.7 250.001L1139.6 260.178H1150.9L1147.74 250.001Z" fill="white" fill-opacity="0.5"/>
<path d="M1206.15 234.613C1210.08 234.613 1213.32 235.104 1215.87 236.084C1218.42 237.025 1220.33 238.475 1221.58 240.437C1222.84 242.358 1223.46 244.79 1223.46 247.733C1223.46 249.736 1223.08 251.493 1222.31 253.005C1221.58 254.477 1220.59 255.744 1219.33 256.807C1218.12 257.828 1216.8 258.666 1215.38 259.32L1228.14 278.387H1217.94L1207.61 261.589H1202.69V278.387H1193.51V234.613H1206.15ZM1205.48 242.215H1202.69V254.048H1205.66C1207.69 254.048 1209.33 253.823 1210.58 253.373C1211.84 252.924 1212.75 252.249 1213.32 251.35C1213.89 250.41 1214.17 249.286 1214.17 247.978C1214.17 246.589 1213.85 245.485 1213.2 244.668C1212.59 243.809 1211.64 243.196 1210.34 242.828C1209.09 242.42 1207.47 242.215 1205.48 242.215Z" fill="white" fill-opacity="0.5"/>
<path d="M1346.42 234.613L1335.36 278.387H1324.91L1319.02 255.396C1318.9 254.947 1318.74 254.272 1318.54 253.373C1318.37 252.474 1318.17 251.493 1317.93 250.431C1317.73 249.368 1317.54 248.366 1317.38 247.426C1317.22 246.446 1317.1 245.689 1317.02 245.158C1316.98 245.689 1316.85 246.446 1316.65 247.426C1316.49 248.366 1316.31 249.368 1316.11 250.431C1315.9 251.452 1315.7 252.433 1315.5 253.373C1315.3 254.272 1315.13 254.967 1315.01 255.458L1309.18 278.387H1298.73L1287.67 234.613H1296.73L1302.25 258.523C1302.42 259.218 1302.6 260.076 1302.8 261.098C1303 262.079 1303.21 263.121 1303.41 264.225C1303.61 265.287 1303.79 266.33 1303.96 267.352C1304.16 268.373 1304.3 269.252 1304.38 269.988C1304.46 269.211 1304.58 268.332 1304.74 267.352C1304.91 266.33 1305.09 265.308 1305.29 264.286C1305.49 263.223 1305.68 262.243 1305.84 261.343C1306.04 260.403 1306.22 259.668 1306.39 259.136L1312.7 234.613H1321.39L1327.71 259.136C1327.83 259.668 1327.99 260.403 1328.2 261.343C1328.4 262.243 1328.6 263.223 1328.8 264.286C1329.01 265.349 1329.19 266.391 1329.35 267.413C1329.51 268.394 1329.63 269.252 1329.71 269.988C1329.84 268.966 1330.02 267.76 1330.26 266.371C1330.5 264.94 1330.77 263.51 1331.05 262.079C1331.37 260.649 1331.64 259.463 1331.84 258.523L1337.37 234.613H1346.42Z" fill="white" fill-opacity="0.5"/>
<path d="M1397.86 278.387L1394.7 267.965H1378.91L1375.75 278.387H1365.85L1381.16 234.429H1392.39L1407.76 278.387H1397.86ZM1389.36 250.001C1389.15 249.307 1388.89 248.428 1388.57 247.365C1388.24 246.302 1387.92 245.219 1387.6 244.116C1387.27 243.012 1387.01 242.052 1386.81 241.234C1386.6 242.052 1386.32 243.074 1385.96 244.3C1385.63 245.485 1385.31 246.629 1384.98 247.733C1384.7 248.796 1384.48 249.552 1384.31 250.001L1381.22 260.178H1392.52L1389.36 250.001Z" fill="white" fill-opacity="0.5"/>
<path d="M1460.71 266.248C1460.71 268.823 1460.08 271.071 1458.82 272.992C1457.57 274.913 1455.74 276.405 1453.35 277.467C1451.01 278.489 1448.13 279 1444.73 279C1443.23 279 1441.75 278.898 1440.29 278.693C1438.88 278.489 1437.5 278.203 1436.16 277.835C1434.87 277.426 1433.63 276.936 1432.46 276.364V267.719C1434.52 268.619 1436.65 269.456 1438.83 270.233C1441.06 270.969 1443.27 271.337 1445.46 271.337C1446.96 271.337 1448.15 271.132 1449.04 270.723C1449.97 270.315 1450.64 269.763 1451.05 269.068C1451.49 268.373 1451.71 267.576 1451.71 266.677C1451.71 265.574 1451.33 264.634 1450.56 263.857C1449.83 263.08 1448.84 262.365 1447.58 261.711C1446.33 261.016 1444.89 260.281 1443.27 259.504C1442.26 259.014 1441.16 258.441 1439.99 257.787C1438.81 257.093 1437.68 256.255 1436.59 255.274C1435.53 254.252 1434.66 253.026 1433.97 251.595C1433.29 250.165 1432.94 248.448 1432.94 246.446C1432.94 243.83 1433.53 241.602 1434.7 239.763C1435.92 237.883 1437.62 236.452 1439.81 235.471C1442.03 234.49 1444.65 234 1447.64 234C1449.91 234 1452.06 234.266 1454.08 234.797C1456.15 235.328 1458.3 236.084 1460.52 237.065L1457.55 244.3C1455.56 243.482 1453.78 242.849 1452.2 242.399C1450.62 241.95 1449 241.725 1447.34 241.725C1446.21 241.725 1445.23 241.909 1444.42 242.277C1443.61 242.644 1442.99 243.155 1442.54 243.809C1442.14 244.463 1441.93 245.24 1441.93 246.139C1441.93 247.161 1442.24 248.04 1442.84 248.775C1443.45 249.47 1444.36 250.144 1445.58 250.798C1446.79 251.452 1448.31 252.229 1450.13 253.128C1452.36 254.191 1454.25 255.294 1455.78 256.439C1457.36 257.583 1458.58 258.932 1459.43 260.485C1460.28 262.038 1460.71 263.959 1460.71 266.248Z" fill="white" fill-opacity="0.5"/>
<path d="M1526 278.387H1516.83V259.504H1499.63V278.387H1490.46V234.613H1499.63V251.779H1516.83V234.613H1526V278.387Z" fill="white" fill-opacity="0.5"/>
</svg>
